PathFileType	3	(X/Y/Z)	D:\Jess\PFP\Labelled\PA24\20251014\SRRun01.trc
DataRate	CameraRate	NumFrames	NumMarkers	Units	OrigDataRate	OrigDataStartFrame	OrigNumFrames
250.0	250.0	5	33	mm	250.0	35312	2501
Frame#	Time	C7			T10			CLAV			LSHO			RSHO			LASIS			RASIS			LPSIS			RPSIS			LILCR			RILCR			LGTR			LTHI			LLTHI			LLEP			LPSH			LLSH			LDSH			LLMAL			LTOE			L5TH			LHEE			RGTR			RTHI			RLTHI			RLEP			RPSH			RLSH			RDSH			RLMAL			RTOE			R5TH			RHEE			
		X1	Y1	Z1	X2	Y2	Z2	X3	Y3	Z3	X4	Y4	Z4	X5	Y5	Z5	X6	Y6	Z6	X7	Y7	Z7	X8	Y8	Z8	X9	Y9	Z9	X10	Y10	Z10	X11	Y11	Z11	X12	Y12	Z12	X13	Y13	Z13	X14	Y14	Z14	X15	Y15	Z15	X16	Y16	Z16	X17	Y17	Z17	X18	Y18	Z18	X19	Y19	Z19	X20	Y20	Z20	X21	Y21	Z21	X22	Y22	Z22	X23	Y23	Z23	X24	Y24	Z24	X25	Y25	Z25	X26	Y26	Z26	X27	Y27	Z27	X28	Y28	Z28	X29	Y29	Z29	X30	Y30	Z30	X31	Y31	Z31	X32	Y32	Z32	X33	Y33	Z33	

313	141.244	869.059929699207	1487.311349980129	-987.1776381162952	859.1091203079386	1261.835487150436	-913.0778968160654	901.4646884685351	1398.132594651821	-1090.924560409506	728.0842256808404	1455.286733637206	-1071.274162493398	1025.262330349648	1464.828346781915	-1009.482150477761	768.539462227379	1031.716402459075	-1034.367942094188	1016.217402118263	1050.400913620084	-1007.601005147296	849.3618255057478	1083.920161122299	-863.8963123645086	898.8057791036002	1082.848744674367	-855.7365942128056	755.1181800629819	1103.491162689061	-1012.229038594844	1030.848266804329	1123.743709931344	-963.6535301579397	718.5175490777723	980.3601470647891	-977.6061424565083	791.5660892836137	785.3854517613112	-1019.649991826389	747.2659477901202	720.4826210287968	-868.5445219670069	775.4877545954045	558.5615143342523	-794.6917700906781	822.8901027648517	457.8042707557004	-791.7849528270914	779.2942131339895	405.2976046740348	-655.5960863525423	822.3628867165078	285.3351130513631	-648.283228451922	804.7676285191694	221.8053962998589	-537.045070733436	815.8547725738084	73.41980701241947	-576.2959602376422	790.7431375109818	90.08365403301993	-523.000357913118	863.7998954165937	267.1272357021492	-494.6914984045207	1077.094961745728	993.4793875458869	-957.7283082513521	988.2198174526856	857.6018368520482	-1118.175761171869	1045.745908056451	729.1788730855009	-1067.9384629943	1012.758326674881	551.4577321566759	-1129.882597635291	952.1071500021779	485.5543303127861	-1184.382120160605	1008.831208197366	358.5249185045037	-1131.063944090692	946.3910993785432	257.8156065536029	-1188.102632940669	976.6573291185149	147.3472931069748	-1153.365315590797	978.317147179616	133.2708465336917	-1304.42029871297	1004.930334365113	91.44142526231271	-1267.645416778098	921.6668421389418	87.19740102076561	-1098.362487253585	
314	141.248	869.7538294732165	1487.340347691283	-987.1966655443865	859.4556911494329	1261.923925370643	-913.325945852292	902.4389716422153	1398.734198644117	-1090.852734566159	729.1733315757581	1455.771060511693	-1071.401291250452	1025.852205761549	1464.957345178479	-1009.287989639219	769.1458635038089	1032.132595666095	-1035.435662204544	1016.423954894157	1050.030904563293	-1007.711724381885	849.2179851492297	1084.789516103055	-865.0840324255503	898.6541256054555	1083.565792037114	-856.7125249386436	755.9435410752767	1103.97369254755	-1013.579681218695	1031.097004457195	1123.632507111473	-963.9651717359638	718.7052387949811	981.0766207735326	-978.8347734432941	791.3374208208708	785.6573338464592	-1020.384761330755	747.2556988951326	721.4916237234908	-868.8703515290131	775.4023427795966	559.4509330186772	-794.9467897870105	822.0769218160107	458.252737015052	-791.2871503953596	779.0783163106822	407.9277150637784	-653.9154845512509	821.3307757978891	287.7719016493525	-645.2387870121748	804.1986734179198	226.2716889318905	-532.9054088647745	815.121797847842	76.42760538410819	-568.2398693301036	790.7793709333823	94.71261118235303	-514.9943236358091	863.686174028976	272.9099889449029	-492.8009378119735	1076.97105092482	992.6958935496258	-957.5865169428647	988.6459395036195	854.5182810760181	-1117.290091475264	1046.443673303842	727.1375713735175	-1066.28495429593	1012.46834119452	549.7802113609885	-1128.315980539193	951.3998988519725	484.7849945215903	-1183.417205255299	1008.231050162594	356.9903825043567	-1132.783321839355	945.4789335082507	257.4645650870598	-1191.661653577116	975.6579432456999	145.9798134368791	-1159.375657502762	976.7619148298274	135.6837315791488	-1310.81644116295	1003.211687989964	92.54844507607596	-1275.263266531814	920.678403793902	84.30005595633436	-1105.661405483673	
315	141.252	870.4839106448147	1487.200497641743	-987.1988811855944	859.8379218704646	1261.847134246256	-913.5134687026433	903.3995724031483	1399.121201057648	-1090.775750515617	730.227705380988	1456.044795533028	-1071.502717159165	1026.489400080051	1464.890671388706	-1009.121018401634	769.7858339189961	1032.421616646891	-1036.433807523155	1016.730227661077	1049.492883827302	-1007.745981084571	849.0740843100468	1085.45598375198	-866.1833679403437	898.5065136919117	1084.048136394997	-857.5953228449526	756.7638496583265	1104.272599775276	-1014.85710527786	1031.350816324156	1123.335010513478	-964.1611587290164	718.9081540555617	981.6612009343305	-980.0568616928738	791.1685805027895	785.8457551589632	-1021.29002087976	747.2585750286249	722.203094242669	-869.4766999279975	775.3089771289442	559.9728627596044	-795.6725455693719	821.2640683373046	458.3707222844483	-791.1195857020563	778.8845075609303	410.4057415784648	-652.5482935130955	820.404451827824	290.1488106503648	-642.3039951813075	803.7364208796038	230.8322849184011	-528.831511823352	814.4045532873743	79.72293134252536	-560.3551399615402	790.7872347508277	99.56247460190217	-507.2201470863888	863.6649166165632	278.6360903222991	-490.8817760353026	1076.834015914829	991.6101186178481	-957.3598467226094	989.1121218641283	851.1821849707761	-1116.261455904292	1047.112859942231	724.8566912074341	-1064.6665602638	1012.115741836992	548.0698462895065	-1126.877553988725	950.5978838447876	483.9131596375711	-1182.385120510197	1007.584644464928	355.4875761324162	-1134.156249819705	944.5466168981593	257.0348151398995	-1194.597019066635	974.6548451581845	144.6776850939007	-1164.496492039602	975.2632856935697	137.7545710682277	-1316.197370758448	1001.547782817323	93.45784239236286	-1281.759999356629	919.6701420752473	81.64320748084623	-1111.94829269981	
316	141.256	871.2478208507636	1486.894961535914	-987.185579990065	860.2538824473694	1261.607384372182	-913.6399039149494	904.3453734105863	1399.292197468314	-1090.692505607225	731.2468708416028	1456.106323198844	-1071.584794355803	1027.171514775287	1464.630211185457	-1008.978286412875	770.4578348157293	1032.587437930714	-1037.359190619762	1017.136092443366	1048.791377684279	-1007.704137400455	848.9306865212016	1085.908993330758	-867.1895205740437	898.3613609501066	1084.282891579296	-858.3806093805981	757.5734492382248	1104.3931884957	-1016.046303096763	1031.61024262927	1122.850728840577	-964.2385674300608	719.1254903486407	982.1142924979443	-981.2707554625813	791.060019536504	785.9512216889933	-1022.364982073236	747.2670505405664	722.6007234846752	-870.3758269507896	775.2036796833188	560.1283161765516	-796.8662036076291	820.4537900851331	458.1667601309036	-791.2757990428775	778.7095446126566	412.7396839065804	-651.5010566298193	819.5865877633269	292.4787666101746	-639.4934025159207	803.3754196164588	235.4906018162897	-524.8514057608893	813.7030293301633	83.30278558485571	-552.6783113542099	790.7567141398407	104.6262561522885	-499.7159482141178	863.7255189257041	284.3161111955444	-488.940424172202	1076.682986983389	990.2347398823591	-957.0474024279966	989.6220516813245	847.6545731202731	-1115.111685956574	1047.723550291179	722.3676141895595	-1063.09311391407	1011.701322822881	546.3263451837364	-1125.562309371274	949.716507198767	482.9300101202877	-1181.29201503694	1006.889204208418	353.9901821305655	-1135.159958833851	943.5949064823448	256.4855650604796	-1196.896449110724	973.6400299778231	143.3966807846909	-1168.693069652803	973.8280450228477	139.4079078401308	-1320.549079859776	999.948445108386	94.10313250767848	-1287.100831419597	918.632148208192	79.19875650201762	-1117.176313462759	
317	141.26	872.0429445434676	1486.426541916353	-987.1575508833974	860.7020928215167	1261.20658725218	-913.7053309625662	905.2750191595609	1399.2464853901	-1090.601568025645	732.2310386295455	1455.954928180503	-1071.652524317966	1027.895471493956	1464.178093433976	-1008.857254701531	771.1589612072958	1032.633977703986	-1038.209765345624	1017.639641520625	1047.93010407923	-1007.588093945107	848.7884428555438	1086.137458888655	-868.0987185386551	898.2170450122475	1084.257359534985	-859.0651675841053	758.3661190669625	1104.342000329867	-1017.132493606045	1031.876189714204	1122.178713381981	-964.1965459636358	719.3562257222665	982.4356044334481	-982.4746256757791	791.0105424629775	785.9731192970871	-1023.605787740596	747.2728558948908	722.6709801402948	-871.5763889548176	775.0824882516132	559.9221547290583	-798.5196386317596	819.6484244268843	457.6524296357393	-791.7489359738454	778.5506577579921	414.9381165162322	-650.7800725141896	818.8778632972205	294.7739604043445	-636.824839387453	803.1083854551302	240.2482897566138	-520.9972272210181	813.0159717728013	87.16035861223475	-545.2457666260129	790.6787752888165	109.8958795621897	-492.5185045286717	863.856689159353	289.9608047983916	-486.992609141269	1076.517251246123	988.5843770182371	-956.6496143236708	990.1791857130421	843.9990795294535	-1113.869470694895	1048.247336797798	719.7042058314227	-1061.574473801291	1011.227788858209	544.5454605377879	-1124.359807815886	948.773716920044	481.8236685537292	-1180.142686529915	1006.142560576528	352.4699478423302	-1135.774542900881	942.623984907461	255.7777734662981	-1198.553432344931	972.6052143115805	142.0944815066938	-1171.940611169281	972.4608687925206	140.575365208586	-1323.866495406503	998.4220761480942	94.42437722446537	-1291.262048051079	917.5550733751404	76.94132633605653	-1121.310387804109	
